<svg width="24" height="24" viewBox="0 0 24 24" fill="none" xmlns="http://www.w3.org/2000/svg">
    <path fill-rule="evenodd" clip-rule="evenodd" d="M16.7046 1.5H7.29512C4.09969 1.5 1.5 4.09982 1.5 7.29524V16.7048C1.5 19.9003 4.09969 22.5 7.29512 22.5H16.7046C19.9003 22.5 22.5 19.9002 22.5 16.7048V7.29524C22.5001 4.09982 19.9003 1.5 16.7046 1.5ZM20.6367 16.7048C20.6367 18.8729 18.8727 20.6368 16.7045 20.6368H7.29487C5.12682 20.6369 3.36297 18.8729 3.36297 16.7048V7.29526C3.36297 5.12722 5.12682 3.36324 7.29487 3.36324H16.7044C18.8726 3.36324 20.6365 5.12722 20.6365 7.29526V16.7048H20.6367ZM6.75 12.0001C6.75 9.10516 9.10511 6.75 12 6.75C14.8949 6.75 17.25 9.10516 17.25 12.0001C17.25 14.895 14.8949 17.25 12 17.25C9.10511 17.25 6.75 14.895 6.75 12.0001ZM12.0002 15.4421C10.1022 15.4421 8.55793 13.898 8.55793 12C8.55793 10.1019 10.1021 8.55766 12.0002 8.55766C13.8983 8.55766 15.4425 10.1019 15.4425 12C15.4425 13.898 13.8982 15.4421 12.0002 15.4421ZM16.3229 5.8217C16.5664 5.5771 16.9052 5.4375 17.25 5.4375C17.596 5.4375 17.9349 5.5771 18.1783 5.8217C18.4229 6.06511 18.5625 6.40398 18.5625 6.75C18.5625 7.09483 18.4229 7.43369 18.1783 7.6783C17.9337 7.9217 17.596 8.0625 17.25 8.0625C16.9052 8.0625 16.5663 7.9217 16.3229 7.6783C16.0783 7.43369 15.9375 7.09495 15.9375 6.75C15.9375 6.40398 16.0782 6.06511 16.3229 5.8217Z" fill="currentColor"></path>
</svg>