<svg width="24" height="24" viewBox="0 0 24 24" fill="none" xmlns="http://www.w3.org/2000/svg">
<path fill-rule="evenodd" clip-rule="evenodd" d="M6.49083 13.4088L1.85532 11.6309C1.38452 11.4496 1.38043 10.7665 1.8499 10.5805L20.8742 3.03863C21.2775 2.87832 21.6937 3.24145 21.6058 3.67669L18.1918 20.5528C18.1113 20.9512 17.6567 21.1319 17.3358 20.8922L12.6754 17.4151C12.3923 17.2039 12.0065 17.2153 11.7356 17.4421L9.15174 19.6068C8.85179 19.8588 8.39989 19.7184 8.28507 19.3386L6.49083 13.4088ZM17.0558 6.72827L7.99629 12.4623C7.64906 12.6825 7.48557 13.1134 7.59775 13.5169L8.57727 17.0538C8.64681 17.3045 9.00084 17.2788 9.03455 17.0198L9.28924 15.0802C9.33726 14.715 9.5068 14.3786 9.76959 14.1272L17.2463 6.98504C17.3861 6.85175 17.2186 6.62551 17.0558 6.72827Z" fill="currentColor"></path>
</svg>